# Blender v2.93.5 OBJ File: ''
# www.blender.org
mtllib cloud.mtl
o Cloud_Mesh.002
v 1.099822 0.428218 -1.002249
v 1.108887 0.994519 -0.667179
v 1.415769 0.389121 -0.692660
v 1.572130 0.369452 -0.008255
v 1.406592 -0.220260 0.414150
v 1.397839 -0.239947 -0.409714
v 1.151065 -0.235124 -0.778698
v 1.165628 -0.596983 -0.010184
v 0.616324 -0.576919 -0.615360
v 0.475027 -0.066550 -1.033049
v 0.434204 0.544838 -0.994712
v 0.023310 -0.516912 -1.145206
v 0.146556 0.826409 -1.154136
v -0.111237 -0.002978 -1.258150
v -0.138687 1.172173 -1.147406
v 0.505630 1.067315 -0.624247
v 0.127288 1.534384 -0.758637
v -0.140018 1.899239 -0.411548
v -0.460869 1.606167 -0.732450
v -0.391426 0.904211 -1.132986
v -0.843048 0.873981 -0.711409
v -0.679270 0.266038 -0.994156
v 0.008037 -0.500524 1.156891
v -0.595279 -0.630690 0.691867
v -0.135203 -1.088413 0.388257
v -0.557062 -0.146118 0.978518
v -0.136962 1.256064 1.096153
v -0.464595 1.608442 0.727748
v -0.262380 0.791146 1.253025
v -0.134159 1.878453 0.448324
v -0.480779 1.871234 0.114035
v -0.579481 1.727246 -0.195375
v 0.531326 1.228877 0.347085
v 0.131327 1.853057 -0.010156
v 0.135622 1.522895 0.764564
v 0.547837 1.240829 -0.185346
v 1.262960 1.150547 0.214466
v 0.679109 -0.756012 0.000915
v 0.122981 -1.071097 0.431589
v 0.124942 -1.073502 -0.426731
v 0.608097 -0.570183 0.628225
v 1.416848 0.390180 0.693291
v 1.101674 0.416737 1.002691
v 1.149871 -0.251605 0.781582
v 1.116848 0.999705 0.661260
v 0.390186 -0.095871 1.065525
v 0.123170 0.836800 1.169749
v -0.622568 -0.916871 -0.000000
v -1.115911 -0.953696 -0.000000
v -0.603907 -0.638157 -0.682480
v -1.285093 -0.658149 0.702401
v -1.478920 -0.777133 0.000860
v -0.853345 0.935604 0.617235
v -1.354030 0.857994 0.201484
v -1.436655 0.405055 0.793058
v -1.497721 0.010501 -0.834161
v -1.169245 -0.052404 -1.047233
v -1.284666 -0.658185 -0.703333
v -1.664727 0.363482 -0.239070
v -1.697097 -0.290621 -0.001450
v -1.661954 0.345353 0.264501
v -1.331916 0.588467 -0.758489
v -0.672151 0.438910 0.987873
v -1.189004 0.361723 0.963636
v -0.874565 1.219638 0.005314
v -1.325039 0.865920 -0.236456
v -0.143106 -1.080650 -0.389056
v -0.570903 -0.112157 -0.985754
v 1.274009 1.121822 -0.236101
v 0.432957 0.545624 0.993154
v -1.389959 -0.214461 0.932072
v 0.586248 1.008569 0.649318
vn 0.6735 0.3684 -0.6408
vn 0.9621 -0.2727 -0.0037
vn 0.4058 -0.8239 -0.3956
vn 0.1452 -0.6023 -0.7850
vn 0.2734 -0.2882 -0.9177
vn -0.0003 0.0626 -0.9980
vn 0.2700 -0.0312 -0.9623
vn 0.0925 0.0956 -0.9911
vn 0.6818 0.3708 -0.6306
vn 0.0584 0.7102 -0.7016
vn 0.0556 0.7103 -0.7017
vn 0.0570 0.7102 -0.7017
vn 0.0530 0.7104 -0.7018
vn -0.4707 0.4017 -0.7856
vn -0.6572 0.3235 -0.6808
vn -0.6800 0.1506 -0.7176
vn -0.3161 -0.7242 0.6128
vn -0.4989 -0.4118 0.7626
vn -0.4674 0.3932 0.7918
vn -0.3773 0.8477 0.3729
vn -0.0444 0.9987 0.0244
vn -0.3895 0.8763 -0.2836
vn 0.7379 0.6223 0.2611
vn 0.1110 0.9935 0.0257
vn 0.4950 -0.8689 0.0036
vn 0.6290 -0.7270 -0.2754
vn 0.4545 -0.6719 -0.5848
vn 0.3024 -0.9041 0.3020
vn 0.6301 -0.7222 0.2853
vn 0.6804 -0.1855 0.7090
vn 0.8019 -0.2596 0.5381
vn 0.6682 0.3630 0.6495
vn 0.2845 -0.2826 0.9161
vn 0.1721 0.2729 0.9465
vn 0.0689 -0.9228 0.3790
vn 0.0690 -0.9242 -0.3756
vn -0.4214 -0.8677 0.2636
vn -0.5079 0.7167 0.4778
vn -0.5576 -0.3269 -0.7630
vn 0.0473 0.5407 -0.8399
vn -0.9986 0.0521 0.0074
vn -0.8569 0.3006 -0.4188
vn -0.9681 -0.0418 -0.2469
vn -0.1226 0.5644 0.8163
vn -0.8579 0.5126 0.0351
vn -0.8610 0.4422 -0.2511
vn -0.4172 0.8113 -0.4096
vn -0.4479 0.8049 0.3892
vn -0.8499 0.4759 0.2262
vn 0.4903 0.4366 0.7543
vn -0.6744 0.2668 0.6885
vn -0.6745 0.2679 0.6880
vn -0.6748 0.2672 0.6879
vn -0.0499 -0.7888 0.6126
vn -0.0639 -0.7933 -0.6055
vn -0.4326 -0.3001 -0.8502
vn 0.6754 -0.1881 -0.7130
vn 0.9660 -0.1285 -0.2244
vn 0.9691 -0.1159 0.2179
vn 0.9298 0.3068 -0.2036
vn 0.9296 0.3119 0.1965
vn 0.7977 0.4225 -0.4303
vn 0.5355 -0.7601 -0.3681
vn 0.8108 0.4205 0.4071
vn 0.5736 -0.7466 0.3371
vn 0.1306 0.9361 -0.3265
vn 0.2909 -0.9104 -0.2942
vn 0.3888 -0.8416 0.3749
vn -0.4869 0.8302 -0.2714
vn 0.5838 -0.4113 -0.7000
vn 0.5358 0.0593 0.8422
vn 0.4474 -0.6671 0.5957
vn -0.4877 -0.4129 -0.7692
vn -0.8737 0.3963 -0.2823
vn 0.7825 0.5497 -0.2925
vn 0.7634 0.5928 -0.2565
vn 0.8313 0.5546 0.0382
vn 0.1345 0.9906 0.0230
vn 0.1363 0.7141 0.6867
vn -0.6721 0.2754 0.6873
vn -0.4272 0.8007 -0.4199
vn -0.8683 -0.3908 -0.3055
vn -0.8729 -0.3706 0.3174
vn -0.8692 -0.3883 0.3060
vn 0.9297 0.3682 -0.0007
vn 0.8403 -0.5420 0.0040
vn -0.4106 -0.1350 0.9018
vn 0.5155 -0.0530 -0.8552
vn 0.6930 0.3516 -0.6294
vn -0.2549 -0.0944 -0.9624
vn -0.3101 -0.7282 -0.6112
vn 0.0472 0.5421 0.8390
vn -0.0034 0.7211 0.6928
vn 0.0073 0.1116 0.9937
vn 0.1552 -0.6301 0.7608
vn 0.2644 -0.0320 0.9639
vn 0.5830 -0.3896 0.7130
vn 0.1044 0.8860 0.4517
vn 0.6652 0.2906 0.6878
vn -0.9374 -0.0435 0.3454
vn 0.6046 0.7340 0.3094
vn -0.8569 0.4555 0.2412
vn -0.3277 -0.9448 -0.0061
vn 0.0426 -0.9172 0.3962
vn -0.5440 0.1445 0.8265
vn -0.3639 0.6280 0.6879
vn -0.4926 0.2504 -0.8334
vn -0.4225 -0.8674 -0.2631
vn -0.8432 0.5375 -0.0086
vn 0.1029 0.0074 -0.9947
vn 0.0099 -0.4855 0.8742
vn -0.0489 -0.0316 0.9983
vn 0.0465 -0.9989 -0.0034
vn -0.5413 -0.7693 0.3395
vn -0.3784 0.0108 -0.9256
vn 0.5052 0.4313 -0.7475
vn -0.1416 0.3811 -0.9136
vn 0.7999 -0.2650 -0.5384
vn 0.1574 0.9858 -0.0590
vn 0.0849 0.9238 -0.3734
vn 0.5479 0.0887 -0.8318
vn 0.7889 0.3018 0.5353
vn 0.2965 0.7966 0.5268
vn 0.5953 0.7381 -0.3175
vn 0.2142 -0.0278 0.9764
vn -0.6087 0.7930 -0.0259
vn -0.5348 -0.7770 -0.3320
vn 0.0402 -0.5000 -0.8651
vn 0.0391 -0.9178 -0.3950
vn -0.7956 0.5393 -0.2761
vn -0.8769 -0.3449 -0.3347
vn -0.8059 0.5191 0.2849
usemtl CloudMaterial
s 1
f 1//1 2//1 3//1
f 4//2 5//2 6//2
f 7//3 8//3 9//3
f 10//4 7//4 9//4
f 7//5 10//5 1//5
f 1//6 10//6 11//6
f 10//7 12//7 13//7
f 13//8 14//8 15//8
f 16//9 13//9 17//9
f 17//10 15//11 18//12
f 15//11 19//13 18//12
f 19//14 15//14 20//14
f 20//15 21//15 19//15
f 21//16 20//16 22//16
f 23//17 24//17 25//17
f 26//18 24//18 23//18
f 27//19 28//19 29//19
f 28//20 30//20 31//20
f 18//21 31//21 30//21
f 19//22 32//22 31//22
f 33//23 34//23 35//23
f 36//24 33//24 37//24
f 38//25 39//25 40//25
f 9//26 38//26 40//26
f 12//27 9//27 40//27
f 8//28 41//28 38//28
f 38//29 41//29 39//29
f 42//30 43//30 44//30
f 5//31 42//31 44//31
f 45//32 43//32 42//32
f 46//33 44//33 43//33
f 47//34 27//34 29//34
f 48//35 24//35 49//35
f 50//36 48//36 49//36
f 49//37 51//37 52//37
f 53//38 54//38 55//38
f 56//39 57//39 58//39
f 11//40 16//40 2//40 1//40
f 59//41 60//41 61//41
f 56//42 59//42 62//42
f 59//43 56//43 60//43
f 63//44 53//44 64//44
f 32//45 65//45 31//45
f 21//46 65//46 19//46
f 21//47 66//47 65//47
f 54//48 53//48 65//48
f 65//49 28//49 31//49
f 35//50 27//50 47//50
f 29//51 53//52 63//53
f 39//54 23//54 25//54
f 12//55 40//55 67//55
f 68//56 14//56 12//56
f 1//57 3//57 7//57
f 4//58 6//58 3//58
f 4//59 42//59 5//59
f 4//60 3//60 69//60
f 42//61 4//61 37//61
f 2//62 69//62 3//62
f 7//63 6//63 8//63
f 45//64 42//64 37//64
f 8//65 5//65 44//65
f 69//66 2//66 36//66
f 9//67 8//67 38//67
f 8//68 44//68 41//68
f 18//69 19//69 31//69
f 9//70 12//70 10//70
f 46//71 70//71 47//71
f 41//72 23//72 39//72
f 12//73 50//73 68//73
f 19//74 65//74 32//74
f 36//75 16//75 17//75
f 34//76 36//76 17//76
f 34//77 33//77 36//77
f 34//78 18//78 30//78
f 27//79 35//79 30//79
f 53//52 29//51 28//80
f 21//81 62//81 66//81
f 58//82 52//82 60//82
f 71//83 60//83 51//83
f 52//84 51//84 60//84
f 4//85 69//85 37//85
f 6//86 5//86 8//86
f 26//87 23//87 29//87 63//87
f 14//88 13//88 12//88
f 11//89 13//89 16//89
f 20//90 68//90 22//90
f 12//91 67//91 50//91
f 70//92 43//92 45//92 72//92
f 27//93 30//93 28//93
f 46//94 43//94 70//94
f 41//95 44//95 46//95
f 46//96 47//96 23//96
f 41//97 46//97 23//97
f 33//98 72//98 45//98 37//98
f 72//99 47//99 70//99
f 61//100 60//100 71//100 55//100
f 35//101 34//101 30//101
f 53//102 28//102 65//102
f 67//103 25//103 48//103
f 49//104 24//104 51//104
f 71//105 64//105 55//105
f 64//106 53//106 55//106
f 62//107 57//107 56//107
f 58//108 49//108 52//108
f 54//109 66//109 59//109 61//109
f 22//110 68//110 57//110
f 51//111 24//111 26//111 71//111
f 71//112 26//112 63//112 64//112
f 25//113 67//113 40//113 39//113
f 48//114 25//114 24//114
f 14//115 68//115 20//115 15//115
f 17//116 13//116 15//116
f 22//117 57//117 62//117 21//117
f 3//118 6//118 7//118
f 69//119 36//119 37//119
f 2//120 16//120 36//120
f 11//121 10//121 13//121
f 33//122 35//122 47//122
f 47//123 72//123 33//123
f 18//124 34//124 17//124
f 23//125 47//125 29//125
f 66//126 54//126 65//126
f 50//127 67//127 48//127
f 58//128 57//128 68//128 50//128
f 58//129 50//129 49//129
f 62//130 59//130 66//130
f 56//131 58//131 60//131
f 54//132 61//132 55//132
